<mxfile host="app.diagrams.net" modified="2022-03-05T17:56:50.371Z" agent="5.0 (Windows NT 10.0; Win64; x64) AppleWebKit/537.36 (KHTML, like Gecko) Chrome/98.0.4758.102 Safari/537.36" etag="gCS0OKiMh-5Se2q6oeL-" version="16.6.6" type="github" pages="2">
  <diagram id="6TkuM7NrTHhTdurN9bge" name="Page-1">
    <mxGraphModel dx="1038" dy="579" grid="1" gridSize="10" guides="1" tooltips="1" connect="1" arrows="1" fold="1" page="1" pageScale="1" pageWidth="827" pageHeight="1169" math="0" shadow="0">
      <root>
        <mxCell id="0" />
        <mxCell id="1" parent="0" />
        <mxCell id="jfslB9kb7TI_ufCtMmb4-11" style="edgeStyle=orthogonalEdgeStyle;rounded=0;orthogonalLoop=1;jettySize=auto;html=1;exitX=1;exitY=0.5;exitDx=0;exitDy=0;entryX=0;entryY=0.5;entryDx=0;entryDy=0;" edge="1" parent="1" source="jfslB9kb7TI_ufCtMmb4-1" target="jfslB9kb7TI_ufCtMmb4-2">
          <mxGeometry relative="1" as="geometry" />
        </mxCell>
        <mxCell id="jfslB9kb7TI_ufCtMmb4-1" value="&lt;b&gt;START&lt;/b&gt;" style="ellipse;whiteSpace=wrap;html=1;" vertex="1" parent="1">
          <mxGeometry x="40" y="200" width="60" height="30" as="geometry" />
        </mxCell>
        <mxCell id="jfslB9kb7TI_ufCtMmb4-12" style="edgeStyle=orthogonalEdgeStyle;rounded=0;orthogonalLoop=1;jettySize=auto;html=1;exitX=1;exitY=0.5;exitDx=0;exitDy=0;" edge="1" parent="1" source="jfslB9kb7TI_ufCtMmb4-2" target="jfslB9kb7TI_ufCtMmb4-3">
          <mxGeometry relative="1" as="geometry" />
        </mxCell>
        <mxCell id="jfslB9kb7TI_ufCtMmb4-2" value="&lt;b&gt;Release Emergency&lt;/b&gt;" style="rounded=0;whiteSpace=wrap;html=1;" vertex="1" parent="1">
          <mxGeometry x="130" y="195" width="70" height="40" as="geometry" />
        </mxCell>
        <mxCell id="jfslB9kb7TI_ufCtMmb4-13" style="edgeStyle=orthogonalEdgeStyle;rounded=0;orthogonalLoop=1;jettySize=auto;html=1;exitX=1;exitY=0.5;exitDx=0;exitDy=0;entryX=0;entryY=0.5;entryDx=0;entryDy=0;" edge="1" parent="1" source="jfslB9kb7TI_ufCtMmb4-3" target="jfslB9kb7TI_ufCtMmb4-4">
          <mxGeometry relative="1" as="geometry" />
        </mxCell>
        <mxCell id="jfslB9kb7TI_ufCtMmb4-3" value="&lt;b&gt;OBU/RSU&lt;/b&gt;(GPS, GSM, 8051)" style="rhombus;whiteSpace=wrap;html=1;" vertex="1" parent="1">
          <mxGeometry x="230" y="157.5" width="110" height="115" as="geometry" />
        </mxCell>
        <mxCell id="jfslB9kb7TI_ufCtMmb4-18" style="rounded=0;orthogonalLoop=1;jettySize=auto;html=1;exitX=0.5;exitY=1;exitDx=0;exitDy=0;" edge="1" parent="1" source="jfslB9kb7TI_ufCtMmb4-4">
          <mxGeometry relative="1" as="geometry">
            <mxPoint x="510" y="280" as="targetPoint" />
            <Array as="points">
              <mxPoint x="414" y="280" />
            </Array>
          </mxGeometry>
        </mxCell>
        <mxCell id="jfslB9kb7TI_ufCtMmb4-19" style="edgeStyle=none;rounded=0;orthogonalLoop=1;jettySize=auto;html=1;exitX=0.5;exitY=0;exitDx=0;exitDy=0;" edge="1" parent="1" source="jfslB9kb7TI_ufCtMmb4-4">
          <mxGeometry relative="1" as="geometry">
            <mxPoint x="510" y="140" as="targetPoint" />
            <Array as="points">
              <mxPoint x="414" y="140" />
            </Array>
          </mxGeometry>
        </mxCell>
        <mxCell id="jfslB9kb7TI_ufCtMmb4-4" value="&lt;b&gt;Receive&amp;nbsp;&lt;br&gt;message&lt;/b&gt;" style="rhombus;whiteSpace=wrap;html=1;" vertex="1" parent="1">
          <mxGeometry x="376" y="177.5" width="76" height="75" as="geometry" />
        </mxCell>
        <mxCell id="jfslB9kb7TI_ufCtMmb4-20" value="&lt;b&gt;&lt;i&gt;VALID&lt;/i&gt;&lt;/b&gt;" style="text;html=1;align=center;verticalAlign=middle;resizable=0;points=[];autosize=1;strokeColor=none;fillColor=none;" vertex="1" parent="1">
          <mxGeometry x="414" y="120" width="50" height="20" as="geometry" />
        </mxCell>
        <mxCell id="jfslB9kb7TI_ufCtMmb4-21" value="&lt;b&gt;&lt;i&gt;INVALID&lt;/i&gt;&lt;/b&gt;" style="text;html=1;align=center;verticalAlign=middle;resizable=0;points=[];autosize=1;strokeColor=none;fillColor=none;" vertex="1" parent="1">
          <mxGeometry x="420" y="280" width="60" height="20" as="geometry" />
        </mxCell>
        <mxCell id="jfslB9kb7TI_ufCtMmb4-25" style="edgeStyle=none;rounded=0;orthogonalLoop=1;jettySize=auto;html=1;exitX=1;exitY=0.5;exitDx=0;exitDy=0;entryX=0;entryY=0.5;entryDx=0;entryDy=0;" edge="1" parent="1" source="jfslB9kb7TI_ufCtMmb4-22" target="jfslB9kb7TI_ufCtMmb4-24">
          <mxGeometry relative="1" as="geometry" />
        </mxCell>
        <mxCell id="jfslB9kb7TI_ufCtMmb4-22" value="&lt;b&gt;LOCATION&lt;/b&gt;" style="rhombus;whiteSpace=wrap;html=1;" vertex="1" parent="1">
          <mxGeometry x="510" y="100" width="80" height="80" as="geometry" />
        </mxCell>
        <mxCell id="jfslB9kb7TI_ufCtMmb4-31" style="edgeStyle=none;rounded=0;orthogonalLoop=1;jettySize=auto;html=1;exitX=1;exitY=0.5;exitDx=0;exitDy=0;entryX=0;entryY=0.5;entryDx=0;entryDy=0;" edge="1" parent="1" source="jfslB9kb7TI_ufCtMmb4-24">
          <mxGeometry relative="1" as="geometry">
            <mxPoint x="730" y="140" as="targetPoint" />
          </mxGeometry>
        </mxCell>
        <mxCell id="jfslB9kb7TI_ufCtMmb4-24" value="&lt;b&gt;RSU Algorithm&lt;/b&gt;" style="rhombus;whiteSpace=wrap;html=1;" vertex="1" parent="1">
          <mxGeometry x="620" y="100" width="80" height="80" as="geometry" />
        </mxCell>
        <mxCell id="jfslB9kb7TI_ufCtMmb4-26" value="&lt;b&gt;STOP&lt;/b&gt;" style="ellipse;whiteSpace=wrap;html=1;" vertex="1" parent="1">
          <mxGeometry x="510" y="260" width="90" height="40" as="geometry" />
        </mxCell>
        <mxCell id="jfslB9kb7TI_ufCtMmb4-35" style="edgeStyle=none;rounded=0;orthogonalLoop=1;jettySize=auto;html=1;exitX=0.5;exitY=1;exitDx=0;exitDy=0;" edge="1" parent="1" source="jfslB9kb7TI_ufCtMmb4-33">
          <mxGeometry relative="1" as="geometry">
            <mxPoint x="769.5" y="260" as="targetPoint" />
          </mxGeometry>
        </mxCell>
        <mxCell id="jfslB9kb7TI_ufCtMmb4-36" style="edgeStyle=none;rounded=0;orthogonalLoop=1;jettySize=auto;html=1;exitX=0;exitY=1;exitDx=0;exitDy=0;entryX=1;entryY=0.5;entryDx=0;entryDy=0;" edge="1" parent="1" source="jfslB9kb7TI_ufCtMmb4-33" target="jfslB9kb7TI_ufCtMmb4-26">
          <mxGeometry relative="1" as="geometry" />
        </mxCell>
        <mxCell id="jfslB9kb7TI_ufCtMmb4-33" value="&lt;b&gt;Emergency&lt;/b&gt;" style="rhombus;whiteSpace=wrap;html=1;" vertex="1" parent="1">
          <mxGeometry x="730" y="102.5" width="80" height="75" as="geometry" />
        </mxCell>
      </root>
    </mxGraphModel>
  </diagram>
  <diagram id="m3hA06nbH07tevZgB0ss" name="Page-2">
    <mxGraphModel dx="1038" dy="579" grid="1" gridSize="10" guides="1" tooltips="1" connect="1" arrows="1" fold="1" page="1" pageScale="1" pageWidth="827" pageHeight="1169" math="0" shadow="0">
      <root>
        <mxCell id="1RZNhSoVL1UMY4U2arFY-0" />
        <mxCell id="1RZNhSoVL1UMY4U2arFY-1" parent="1RZNhSoVL1UMY4U2arFY-0" />
        <mxCell id="1RZNhSoVL1UMY4U2arFY-18" style="edgeStyle=none;rounded=0;orthogonalLoop=1;jettySize=auto;html=1;exitX=1;exitY=0.25;exitDx=0;exitDy=0;entryX=-0.01;entryY=0.625;entryDx=0;entryDy=0;entryPerimeter=0;" edge="1" parent="1RZNhSoVL1UMY4U2arFY-1" source="1RZNhSoVL1UMY4U2arFY-9" target="1RZNhSoVL1UMY4U2arFY-11">
          <mxGeometry relative="1" as="geometry" />
        </mxCell>
        <mxCell id="1RZNhSoVL1UMY4U2arFY-9" value="" style="rounded=1;whiteSpace=wrap;html=1;fillColor=#dae8fc;strokeColor=#6c8ebf;" vertex="1" parent="1RZNhSoVL1UMY4U2arFY-1">
          <mxGeometry x="40" y="300" width="310" height="220" as="geometry" />
        </mxCell>
        <mxCell id="1RZNhSoVL1UMY4U2arFY-2" value="Accelerometer" style="rounded=0;whiteSpace=wrap;html=1;fillColor=#fad9d5;strokeColor=#ae4132;" vertex="1" parent="1RZNhSoVL1UMY4U2arFY-1">
          <mxGeometry x="60" y="320" width="100" height="40" as="geometry" />
        </mxCell>
        <mxCell id="1RZNhSoVL1UMY4U2arFY-3" value="Pulse Sensor" style="rounded=0;whiteSpace=wrap;html=1;fillColor=#fad9d5;strokeColor=#ae4132;" vertex="1" parent="1RZNhSoVL1UMY4U2arFY-1">
          <mxGeometry x="60" y="390" width="100" height="40" as="geometry" />
        </mxCell>
        <mxCell id="1RZNhSoVL1UMY4U2arFY-4" value="Muscle Sensors" style="rounded=0;whiteSpace=wrap;html=1;fillColor=#fad9d5;strokeColor=#ae4132;" vertex="1" parent="1RZNhSoVL1UMY4U2arFY-1">
          <mxGeometry x="60" y="460" width="100" height="40" as="geometry" />
        </mxCell>
        <mxCell id="1RZNhSoVL1UMY4U2arFY-5" value="Processing Unit" style="shape=process;whiteSpace=wrap;html=1;backgroundOutline=1;fillColor=#e1d5e7;strokeColor=#9673a6;" vertex="1" parent="1RZNhSoVL1UMY4U2arFY-1">
          <mxGeometry x="200" y="320" width="130" height="110" as="geometry" />
        </mxCell>
        <mxCell id="1RZNhSoVL1UMY4U2arFY-6" value="802.11 interface" style="rounded=0;whiteSpace=wrap;html=1;fillColor=#bac8d3;strokeColor=#23445d;" vertex="1" parent="1RZNhSoVL1UMY4U2arFY-1">
          <mxGeometry x="235" y="330" width="60" height="30" as="geometry" />
        </mxCell>
        <mxCell id="1RZNhSoVL1UMY4U2arFY-7" value="Generate Alerts" style="rounded=0;whiteSpace=wrap;html=1;fillColor=#fad9d5;strokeColor=#ae4132;" vertex="1" parent="1RZNhSoVL1UMY4U2arFY-1">
          <mxGeometry x="235" y="390" width="65" height="35" as="geometry" />
        </mxCell>
        <mxCell id="1RZNhSoVL1UMY4U2arFY-8" value="GPS module" style="rounded=0;whiteSpace=wrap;html=1;fillColor=#ffe6cc;strokeColor=#d79b00;" vertex="1" parent="1RZNhSoVL1UMY4U2arFY-1">
          <mxGeometry x="200" y="465" width="130" height="30" as="geometry" />
        </mxCell>
        <mxCell id="1RZNhSoVL1UMY4U2arFY-19" style="edgeStyle=none;rounded=0;orthogonalLoop=1;jettySize=auto;html=1;exitX=1;exitY=0.5;exitDx=0;exitDy=0;entryX=1;entryY=0.5;entryDx=0;entryDy=0;" edge="1" parent="1RZNhSoVL1UMY4U2arFY-1" source="1RZNhSoVL1UMY4U2arFY-11" target="1RZNhSoVL1UMY4U2arFY-13">
          <mxGeometry relative="1" as="geometry">
            <Array as="points">
              <mxPoint x="720" y="345" />
              <mxPoint x="720" y="485" />
            </Array>
          </mxGeometry>
        </mxCell>
        <mxCell id="1RZNhSoVL1UMY4U2arFY-11" value="Server Control Unit&lt;br&gt;" style="rounded=1;whiteSpace=wrap;html=1;fillColor=#ffe6cc;strokeColor=#d79b00;" vertex="1" parent="1RZNhSoVL1UMY4U2arFY-1">
          <mxGeometry x="430" y="305" width="160" height="80" as="geometry" />
        </mxCell>
        <mxCell id="1RZNhSoVL1UMY4U2arFY-12" value="&lt;b&gt;802.11 Interface&lt;/b&gt;" style="rounded=0;whiteSpace=wrap;html=1;fillColor=#bac8d3;strokeColor=#23445d;" vertex="1" parent="1RZNhSoVL1UMY4U2arFY-1">
          <mxGeometry x="475" y="305" width="70" height="30" as="geometry" />
        </mxCell>
        <mxCell id="1RZNhSoVL1UMY4U2arFY-20" style="edgeStyle=none;rounded=0;orthogonalLoop=1;jettySize=auto;html=1;exitX=0;exitY=0.5;exitDx=0;exitDy=0;entryX=0.997;entryY=0.846;entryDx=0;entryDy=0;entryPerimeter=0;" edge="1" parent="1RZNhSoVL1UMY4U2arFY-1" source="1RZNhSoVL1UMY4U2arFY-13" target="1RZNhSoVL1UMY4U2arFY-9">
          <mxGeometry relative="1" as="geometry" />
        </mxCell>
        <mxCell id="1RZNhSoVL1UMY4U2arFY-13" value="Hospital" style="rounded=1;whiteSpace=wrap;html=1;fillColor=#f8cecc;strokeColor=#b85450;" vertex="1" parent="1RZNhSoVL1UMY4U2arFY-1">
          <mxGeometry x="540" y="450" width="100" height="70" as="geometry" />
        </mxCell>
        <mxCell id="1RZNhSoVL1UMY4U2arFY-14" value="&lt;b&gt;802.11 Interface&lt;/b&gt;" style="rounded=0;whiteSpace=wrap;html=1;fillColor=#bac8d3;strokeColor=#23445d;" vertex="1" parent="1RZNhSoVL1UMY4U2arFY-1">
          <mxGeometry x="555" y="450" width="70" height="30" as="geometry" />
        </mxCell>
        <mxCell id="1RZNhSoVL1UMY4U2arFY-21" value="&lt;b&gt;&lt;u&gt;Vehicle&lt;/u&gt;&lt;/b&gt;" style="text;html=1;strokeColor=none;fillColor=none;align=center;verticalAlign=middle;whiteSpace=wrap;rounded=0;" vertex="1" parent="1RZNhSoVL1UMY4U2arFY-1">
          <mxGeometry x="50" y="275" width="60" height="30" as="geometry" />
        </mxCell>
        <mxCell id="1RZNhSoVL1UMY4U2arFY-22" value="&lt;b&gt;&lt;u&gt;Vehicular Environment&lt;/u&gt;&lt;/b&gt;" style="text;html=1;strokeColor=none;fillColor=none;align=center;verticalAlign=middle;whiteSpace=wrap;rounded=0;" vertex="1" parent="1RZNhSoVL1UMY4U2arFY-1">
          <mxGeometry x="360" y="300" width="60" height="30" as="geometry" />
        </mxCell>
        <mxCell id="1RZNhSoVL1UMY4U2arFY-23" value="&lt;b&gt;&lt;u&gt;Alert&lt;/u&gt;&lt;/b&gt;" style="text;html=1;strokeColor=none;fillColor=none;align=center;verticalAlign=middle;whiteSpace=wrap;rounded=0;" vertex="1" parent="1RZNhSoVL1UMY4U2arFY-1">
          <mxGeometry x="360" y="355" width="60" height="30" as="geometry" />
        </mxCell>
        <mxCell id="1RZNhSoVL1UMY4U2arFY-25" value="&lt;b&gt;&lt;u&gt;Request for Ambulance&lt;/u&gt;&lt;/b&gt;" style="text;html=1;strokeColor=none;fillColor=none;align=center;verticalAlign=middle;whiteSpace=wrap;rounded=0;" vertex="1" parent="1RZNhSoVL1UMY4U2arFY-1">
          <mxGeometry x="650" y="410" width="70" height="30" as="geometry" />
        </mxCell>
        <mxCell id="1RZNhSoVL1UMY4U2arFY-26" value="&lt;b&gt;&lt;u&gt;Request for Path&amp;nbsp;Clearance&lt;/u&gt;&lt;/b&gt;" style="text;html=1;strokeColor=none;fillColor=none;align=center;verticalAlign=middle;whiteSpace=wrap;rounded=0;" vertex="1" parent="1RZNhSoVL1UMY4U2arFY-1">
          <mxGeometry x="374" y="460" width="166" height="30" as="geometry" />
        </mxCell>
        <mxCell id="1RZNhSoVL1UMY4U2arFY-27" value="&lt;u&gt;&lt;b&gt;Emergency Dispatch&lt;/b&gt;&lt;/u&gt;" style="text;html=1;strokeColor=none;fillColor=none;align=center;verticalAlign=middle;whiteSpace=wrap;rounded=0;" vertex="1" parent="1RZNhSoVL1UMY4U2arFY-1">
          <mxGeometry x="387" y="480" width="140" height="30" as="geometry" />
        </mxCell>
      </root>
    </mxGraphModel>
  </diagram>
</mxfile>
